<mxfile host="app.diagrams.net" modified="2024-04-27T02:57:48.345Z" agent="Mozilla/5.0 (Windows NT 10.0; Win64; x64) AppleWebKit/537.36 (KHTML, like Gecko) Chrome/124.0.0.0 Safari/537.36" version="24.3.0" etag="Y5_v4WZRHeL6JIclsj12" type="github">
  <diagram name="第 1 页" id="DVeok3kyy-9tr_E1Dp1c">
    <mxGraphModel>
      <root>
        <mxCell id="0" />
        <mxCell id="1" parent="0" />
      </root>
    </mxGraphModel>
  </diagram>
</mxfile>
